<svg width="526" height="399" viewBox="0 0 526 399" fill="none" xmlns="http://www.w3.org/2000/svg">
<path d="M161.261 238.351C169.987 237.77 178.325 240.678 184.724 246.301L220.595 277.713C224.667 281.204 230.678 281.204 234.556 277.326L265.775 247.659C272.173 241.454 280.705 238.351 289.625 238.739C298.544 239.127 306.688 243.005 312.505 249.792L354 296.91V192.784C354 183.283 348.571 174.751 339.845 170.679C336.743 169.322 333.253 167.771 329.374 166.22C320.261 129.572 290.982 44.4493 216.33 63.6456C216.33 63.6456 297.768 60.9309 308.821 166.608C310.372 183.283 309.209 195.499 309.209 195.499L293.503 192.009C293.309 180.762 291.176 164.281 289.431 153.616C258.018 146.248 217.299 142.564 171.538 152.647C191.51 76.8309 239.21 84.3931 239.21 84.3931C167.854 51.4297 146.525 191.039 146.525 191.039H146.913C146.719 192.009 146.719 192.978 146.525 193.948L130.625 196.081C130.625 196.081 130.237 181.344 134.891 163.505C128.88 165.638 122.869 168.159 116.664 170.873C107.938 174.751 102.315 183.477 102.315 192.978V291.48L138.963 249.21C144.586 242.811 152.536 238.933 161.261 238.351Z" fill="url(#paint0_linear)"/>
<path d="M353.612 349.855L296.023 284.122C294.084 281.989 291.564 280.632 288.655 280.632C285.746 280.438 283.032 281.601 281.093 283.54L249.875 313.207C237.659 324.841 218.85 325.229 206.247 314.177L170.375 282.765C168.242 281.02 165.527 280.05 162.813 280.244C160.098 280.438 157.577 281.795 155.638 283.734L102.315 345.201V349.273C102.315 376.225 124.226 398.136 151.178 398.136H304.943C331.895 398.136 353.612 376.419 353.806 349.661L353.612 349.855Z" fill="#FA7670"/>
<circle cx="62" cy="50" r="50" fill="#FF5A52" fill-opacity="0.12"/>
<circle cx="476" cy="325" r="50" fill="#FF5A52" fill-opacity="0.12"/>
<circle cx="23" cy="199" r="23" fill="#FF5A52" fill-opacity="0.12"/>
<circle cx="384" cy="77" r="23" fill="#FF5A52" fill-opacity="0.12"/>
<circle cx="112" cy="123" r="11" fill="#FF5A52" fill-opacity="0.12"/>
<circle cx="57" cy="269" r="11" fill="#FF5A52" fill-opacity="0.12"/>
<circle cx="394" cy="357" r="11" fill="#FF5A52" fill-opacity="0.12"/>
<defs>
<linearGradient id="paint0_linear" x1="228.157" y1="64.7217" x2="228.157" y2="286.157" gradientUnits="userSpaceOnUse">
<stop offset="0.0376884" stop-color="#FA7670"/>
<stop offset="1" stop-color="#FF5A52"/>
</linearGradient>
</defs>
</svg>
