
<!-- Generator: Adobe Illustrator 21.0.2, SVG Export Plug-In . SVG Version: 6.00 Build 0)  -->
<svg version="1.1" id="Layer_1" xmlns="http://www.w3.org/2000/svg" xmlns:xlink="http://www.w3.org/1999/xlink" x="0px" y="0px"
	 viewBox="0 0 16.6 16" style="enable-background:new 0 0 16.6 16;" >
<g>
	<defs>
		<rect y="0.1" width="16.6" height="15.8"/>
	</defs>
	<clipPath>
		<use xlink:href="#SVGID_1_"  style="overflow:visible;"/>
	</clipPath>
	<g class="st0">
		<path fill="white" class="st1" d="M2.1,15.9h6.2v-5.4H6.2V8h2.1V6c0-1.6,1.4-3,3.1-3h2.1v2.5h-1c-0.6,0-1-0.1-1,0.5v2H14l-1,2.5h-1.6v5.4h3.1
			c1.1,0,2.1-0.9,2.1-2V2.1c0-1.1-0.9-2-2.1-2H2.1C0.9,0.1,0,1,0,2.1v11.9C0,15,0.9,15.9,2.1,15.9z"/>
	</g>
</g>
</svg>
