<svg width="208" height="453" viewBox="0 0 208 453" fill="none" xmlns="http://www.w3.org/2000/svg">
<path fill-rule="evenodd" clip-rule="evenodd" d="M53.4205 136.309C43.712 138.011 34.7929 142.578 27.7942 149.367C18.6832 158.252 13.6049 170.189 13.6049 182.749C13.6049 185.551 13.8609 188.354 14.3517 191.115C15.7813 190.866 17.2323 190.741 18.6832 190.741C21.3077 190.741 23.9322 191.136 26.4287 191.924L57.688 143.844C55.7676 141.644 54.2953 139.09 53.4205 136.309ZM118.841 172.348L86.1094 147.747C82.5674 150.01 78.4492 151.214 74.2031 151.214C72.2614 151.214 70.341 150.965 68.4633 150.467L37.2041 198.547C40.6607 202.138 42.9438 206.643 43.7333 211.501L133.073 219.701L133.073 200.581C123.834 197.882 117.39 189.537 117.39 180.029C117.369 177.413 117.881 174.797 118.841 172.348ZM118.862 46.6467C117.07 46.4599 115.278 46.3561 113.485 46.3561C100.576 46.3561 88.3071 51.2969 79.1747 60.1822C70.0423 69.0674 64.964 81.0043 64.964 93.5641C64.964 99.1277 65.9455 104.608 67.9085 109.84C69.9356 109.238 72.048 108.947 74.1604 108.947C80.6257 108.947 86.6641 111.729 90.7822 116.483L144.894 92.8375C144.766 91.8617 144.702 90.886 144.702 89.8895C144.702 84.3882 146.814 79.1359 150.612 75.1085L122.34 47.1242C121.209 46.9373 120.036 46.7713 118.862 46.6467ZM228.579 173.843L228.579 93.3149L189.318 93.3149C188.273 99.7713 184.283 105.459 178.479 108.76L178.01 173.843L228.579 173.843ZM187.611 80.9213L228.579 80.9213L228.579 47.5601C228.579 35.0004 223.501 23.0427 214.368 14.1782C205.236 5.293 192.967 0.352145 180.058 0.352146C168.109 0.352147 156.693 4.58717 147.774 12.3306C139.645 19.389 134.161 28.897 132.262 39.3392L161.9 68.6729C163.607 68.2785 165.378 68.0709 167.149 68.0709C176.025 68.0709 184.005 73.1363 187.611 80.9213ZM160.556 173.843L165.314 173.843L165.762 111.708C159.681 111.355 154.048 108.615 150.1 104.131L95.7539 127.859C95.8392 128.607 95.8819 129.354 95.8819 130.081C95.8819 132.904 95.3058 135.665 94.1962 138.239L126.565 162.57C130.299 159.954 134.759 158.563 139.389 158.563C149.204 158.563 157.782 164.833 160.556 173.843ZM144.617 293.793C142.91 294.188 141.16 294.395 139.41 294.395C134.929 294.395 130.577 293.067 126.906 290.617L86.4081 322.151C86.9202 323.397 87.3043 324.663 87.5603 325.971L161.068 333.756C162.049 331.555 163.393 329.521 165.058 327.756L144.617 293.793ZM160.556 279.137C159.595 282.271 157.888 285.157 155.584 287.565L176.004 321.528C177.647 321.155 179.332 320.968 181.018 320.968C183.579 320.968 186.118 321.404 188.508 322.255L222.114 279.137L160.556 279.137ZM228.579 291.323L198.643 329.728C201.31 333.32 202.761 337.617 202.761 342.101C202.761 342.932 202.718 343.783 202.612 344.634L228.579 355.824L228.579 291.323ZM228.579 369.338L200.03 357.028L228.579 395.392L228.579 369.338ZM143.507 440.441C152.874 448.33 164.759 452.606 177.135 452.606C190.812 452.606 203.828 447.375 213.494 437.95C220.151 431.473 224.866 423.397 227.086 414.512L188.059 362.072C185.798 362.841 183.429 363.214 181.018 363.214C177.967 363.214 174.98 362.591 172.206 361.387L138.322 399.419C140.498 402.783 141.629 406.644 141.629 410.651C141.629 417.481 138.279 423.812 132.668 427.757C135.548 432.552 139.197 436.829 143.507 440.441ZM113.976 390.347C115.918 389.808 117.923 389.538 119.929 389.538C122.98 389.538 125.968 390.14 128.742 391.344L162.625 353.333C161.196 351.111 160.193 348.641 159.681 346.087L86.1734 338.302C85.3199 340.212 84.189 341.998 82.8234 343.575L113.976 390.347ZM78.5986 391.095C84.4451 396.783 91.6998 400.935 99.6586 403.115C100.533 400.914 101.771 398.859 103.329 397.053L72.1974 350.281C70.2557 350.821 68.25 351.09 66.2443 351.09C65.7962 351.09 65.3481 351.07 64.8787 351.049C64.5586 353.249 64.4092 355.471 64.4092 357.692C64.3879 370.252 69.4876 382.21 78.5986 391.095ZM64.3452 308.906C64.9853 308.865 65.6042 308.844 66.2229 308.844C70.5971 308.844 74.8646 310.11 78.4706 312.498L118.969 280.964C117.923 278.41 117.369 275.711 117.369 272.95C117.369 263.442 123.813 255.097 133.052 252.398L133.052 232.116L42.517 223.812C40.81 228.379 37.7588 232.344 33.7474 235.25L64.3452 308.906ZM18.8966 308.865C26.258 316.027 35.369 321.279 45.3549 324.103C46.5712 319.951 49.1103 316.255 52.567 313.536L21.9905 239.859C20.9023 240.004 19.7927 240.067 18.7045 240.067C15.0131 240.067 11.3858 239.298 8.07851 237.804C7.52376 238.8 6.99029 239.817 6.49953 240.855C2.70147 248.827 0.759789 257.463 0.75979 266.266C0.759791 282.292 7.24636 297.53 18.8966 308.865Z" fill="#FF786B" fill-opacity="0.2"/>
</svg>
