<svg width="228" height="477" viewBox="0 0 228 477" fill="none" xmlns="http://www.w3.org/2000/svg">
<path fill-rule="evenodd" clip-rule="evenodd" d="M139.521 72.2381C130.673 63.3537 118.738 58.4132 106.202 58.4132C104.461 58.4132 102.7 58.4963 100.98 58.7039C99.8405 58.8284 98.7215 58.9945 97.6026 59.2021L70.1472 87.184C73.8356 91.211 75.887 96.4421 75.887 101.964C75.887 102.96 75.8248 103.936 75.7005 104.911L128.208 128.513C132.207 123.76 138.091 120.978 144.349 120.978C146.421 120.978 148.452 121.289 150.42 121.871C152.327 116.681 153.28 111.18 153.28 105.596C153.301 93.0585 148.369 81.1018 139.521 72.2381ZM87.1799 212.604L87.1799 231.722L173.939 223.523C174.706 218.666 176.923 214.161 180.279 210.57L149.923 162.494C148.12 162.992 146.235 163.242 144.349 163.242C140.226 163.242 136.206 162.038 132.787 159.775L101.001 184.373C101.933 186.823 102.41 189.418 102.41 192.054C102.41 201.582 96.1521 209.906 87.1799 212.604ZM189.397 161.394C182.621 154.585 173.939 150.039 164.511 148.337C163.661 151.119 162.231 153.672 160.346 155.872L190.702 203.948C193.127 203.18 195.654 202.765 198.224 202.765C199.633 202.765 201.042 202.889 202.43 203.139C202.928 200.378 203.176 197.575 203.176 194.773C203.197 182.235 198.265 170.279 189.397 161.394ZM172.343 336.136C182.041 333.312 190.889 328.061 198.037 320.899C209.351 309.565 215.65 294.329 215.65 278.283C215.65 269.502 213.765 260.846 210.076 252.875C209.6 251.837 209.082 250.82 208.543 249.824C205.31 251.318 201.809 252.086 198.224 252.086C197.146 252.086 196.09 252.024 195.033 251.879L165.36 325.549C168.717 328.289 171.162 331.984 172.343 336.136ZM183.595 247.25C179.699 244.364 176.736 240.379 175.099 235.812L87.1799 244.115L87.1799 264.396C96.1521 267.094 102.41 275.439 102.41 284.946C102.41 287.707 101.892 290.426 100.856 292.959L140.184 324.511C143.686 322.124 147.81 320.858 152.078 320.858C152.679 320.858 153.301 320.878 153.902 320.92L183.595 247.25ZM119.629 415.12C127.358 412.94 134.403 408.789 140.081 403.101C148.929 394.217 153.881 382.281 153.881 369.722C153.881 367.501 153.736 365.28 153.425 363.08C152.99 363.1 152.534 363.121 152.099 363.121C150.13 363.121 148.183 362.851 146.297 362.312L116.065 409.08C117.578 410.865 118.78 412.92 119.629 415.12ZM91.3656 403.35C94.0593 402.146 96.9603 401.544 99.9234 401.544C101.892 401.544 103.84 401.814 105.705 402.354L135.937 355.586C134.61 353.988 133.512 352.223 132.683 350.313L61.3201 358.098C60.8228 360.672 59.8696 363.121 58.4813 365.342L91.3656 403.35ZM9.06165 449.952C18.4483 459.356 31.0881 464.607 44.3703 464.607C56.3885 464.607 67.9301 460.331 77.0267 452.443C81.1916 448.831 84.7349 444.534 87.5322 439.76C82.0826 435.795 78.8294 429.464 78.8294 422.655C78.8294 418.649 79.9483 414.788 82.0411 411.425L49.1361 373.396C46.4424 374.6 43.5415 375.223 40.5991 375.223C38.2783 375.223 35.9576 374.849 33.7611 374.081L-4.13763 426.516C-1.96192 435.401 2.61741 443.496 9.06165 449.952ZM-5.56739 407.398L22.1574 369.037L-5.5674 381.347L-5.56739 407.398ZM-5.5674 367.812L19.6501 356.624C19.5465 355.794 19.5051 354.942 19.5051 354.091C19.5051 349.628 20.8934 345.331 23.5042 341.72L-5.5467 303.317L-5.54669 367.812L-5.5674 367.812ZM60.4705 291.153L0.669627 291.153L33.326 334.267C35.6675 333.416 38.1126 332.98 40.6198 332.98C42.2568 332.98 43.8937 333.167 45.4892 333.541L65.3192 299.581C63.0814 297.173 61.4237 294.287 60.4705 291.153ZM56.0984 339.789C57.7146 341.553 59.0408 343.567 59.9732 345.788L131.357 338.004C131.606 336.696 131.979 335.409 132.476 334.184L93.1476 302.653C89.5836 305.123 85.3565 306.431 81.0051 306.431C79.306 306.431 77.6068 306.223 75.9699 305.829L56.0984 339.789ZM55.8497 185.868L60.4913 185.868C63.185 176.859 71.5148 170.59 81.0051 170.59C85.5015 170.59 89.8322 172.001 93.4584 174.596L124.913 150.268C123.815 147.694 123.276 144.933 123.276 142.11C123.276 141.363 123.317 140.615 123.4 139.889L70.6238 116.162C66.7904 120.646 61.3201 123.386 55.4146 123.739L55.8497 185.868ZM59.1858 80.7074L87.9466 51.3763C86.1231 40.9349 80.7978 31.4277 72.9031 24.37C64.2417 16.6272 53.156 12.3926 41.5729 12.3926C29.0367 12.3926 17.1221 17.333 8.25353 26.2175C-0.59435 35.1019 -5.54672 47.0378 -5.54672 59.5965L-5.54671 92.9547L15.2365 92.9547L34.1963 92.9547C37.6981 85.1704 45.4685 80.1054 54.0677 80.1054C55.7876 80.1054 57.5074 80.2923 59.1858 80.7074ZM-5.56741 185.868L43.5 185.868L43.0649 120.791C37.4288 117.47 33.5539 111.803 32.5386 105.347L15.2158 105.347L-5.56742 105.347L-5.56741 185.868Z" fill="#A7ADEE" fill-opacity="0.2"/>
</svg>
