<svg width="20" height="20" viewBox="0 0 20 20" fill="none" xmlns="http://www.w3.org/2000/svg">
<g clip-path="url(#clip0)">
<path d="M19.9465 3.66858C19.2283 3.98364 18.4629 4.19248 17.665 4.29388C18.4859 3.80378 19.1124 3.03362 19.4069 2.10533C18.6416 2.56163 17.7966 2.88394 16.8961 3.0638C16.1694 2.29003 15.1336 1.81079 14.0037 1.81079C11.8116 1.81079 10.0467 3.59012 10.0467 5.77142C10.0467 6.08527 10.0733 6.38706 10.1385 6.67436C6.84662 6.51381 3.93379 4.93608 1.97702 2.53266C1.6354 3.12537 1.43501 3.80378 1.43501 4.5341C1.43501 5.90541 2.14119 7.121 3.19381 7.82476C2.55765 7.81269 1.93356 7.628 1.40483 7.33708C1.40483 7.34915 1.40483 7.36484 1.40483 7.38053C1.40483 9.30471 2.77735 10.903 4.5772 11.2711C4.25489 11.3593 3.90361 11.4015 3.53906 11.4015C3.28556 11.4015 3.02964 11.387 2.78942 11.3339C3.30246 12.902 4.75827 14.0548 6.48931 14.0922C5.14214 15.1461 3.43162 15.781 1.57987 15.781C1.25515 15.781 0.943705 15.7665 0.632263 15.7267C2.38624 16.8578 4.46493 17.5036 6.70659 17.5036C13.9929 17.5036 17.9764 11.4679 17.9764 6.23617C17.9764 6.06113 17.9704 5.89213 17.962 5.72434C18.7478 5.16664 19.4081 4.47012 19.9465 3.66858Z" fill="white"/>
</g>
<defs>
<clipPath id="clip0">
<rect width="19.3142" height="19.3142" fill="white" transform="translate(0.632263)"/>
</clipPath>
</defs>
</svg>
