<svg width="19" height="19" viewBox="0 0 19 19" fill="none" xmlns="http://www.w3.org/2000/svg">
<g clip-path="url(#clip0)">
<path d="M12.5778 0.170654H5.77393C2.64301 0.170654 0.104034 2.70963 0.104034 5.84055V12.6444C0.104034 15.7753 2.64301 18.3143 5.77393 18.3143H12.5778C15.7087 18.3143 18.2477 15.7753 18.2477 12.6444V5.84055C18.2477 2.70963 15.7087 0.170654 12.5778 0.170654ZM16.5467 12.6444C16.5467 14.833 14.7664 16.6134 12.5778 16.6134H5.77393C3.58535 16.6134 1.805 14.833 1.805 12.6444V5.84055C1.805 3.65197 3.58535 1.87162 5.77393 1.87162H12.5778C14.7664 1.87162 16.5467 3.65197 16.5467 5.84055V12.6444Z" fill="white"/>
<path d="M9.17587 4.70654C6.67091 4.70654 4.63995 6.7375 4.63995 9.24246C4.63995 11.7474 6.67091 13.7784 9.17587 13.7784C11.6808 13.7784 13.7118 11.7474 13.7118 9.24246C13.7118 6.7375 11.6808 4.70654 9.17587 4.70654ZM9.17587 12.0774C7.61325 12.0774 6.34092 10.8051 6.34092 9.24246C6.34092 7.6787 7.61325 6.40751 9.17587 6.40751C10.7385 6.40751 12.0108 7.6787 12.0108 9.24246C12.0108 10.8051 10.7385 12.0774 9.17587 12.0774Z" fill="white"/>
<path d="M14.052 4.97078C14.3859 4.97078 14.6565 4.70018 14.6565 4.36637C14.6565 4.03257 14.3859 3.76196 14.052 3.76196C13.7182 3.76196 13.4476 4.03257 13.4476 4.36637C13.4476 4.70018 13.7182 4.97078 14.052 4.97078Z" fill="white"/>
</g>
<defs>
<clipPath id="clip0">
<rect width="18.1437" height="18.1437" fill="white" transform="translate(0.104034 0.170654)"/>
</clipPath>
</defs>
</svg>
