<svg width="18" height="18" viewBox="0 0 18 18" fill="none" xmlns="http://www.w3.org/2000/svg">
    <g clip-path="url(#clip0)">
        <path fill="white" d="M8.93239 0H8.928C4.08737 0 0.151001 3.93747 0.151001 8.7792C0.151001 10.6996 0.769934 12.4796 1.82234 13.9249L0.728233 17.1864L4.10274 16.1076C5.49095 17.0273 7.14692 17.5584 8.93239 17.5584C13.773 17.5584 17.7094 13.6198 17.7094 8.7792C17.7094 3.93857 13.773 0 8.93239 0ZM14.0408 12.3973C13.829 12.9954 12.9884 13.4914 12.3179 13.6363C11.8592 13.734 11.26 13.8119 9.24296 12.9757C6.66297 11.9068 5.00151 9.2851 4.87201 9.115C4.74801 8.9449 3.82948 7.72679 3.82948 6.46698C3.82948 5.20716 4.46927 4.59371 4.72716 4.33034C4.93896 4.11415 5.28903 4.01539 5.62483 4.01539C5.73347 4.01539 5.83114 4.02087 5.91893 4.02526C6.17682 4.03624 6.30632 4.0516 6.47641 4.45873C6.68821 4.96903 7.20399 6.22884 7.26544 6.35833C7.32799 6.48783 7.39055 6.66341 7.30275 6.83351C7.22045 7.00909 7.14802 7.08701 7.01853 7.23625C6.88903 7.3855 6.76613 7.49963 6.63663 7.65985C6.51811 7.79922 6.38423 7.94847 6.53348 8.20635C6.68272 8.45876 7.1985 9.30046 7.9579 9.97646C8.93788 10.8489 9.7324 11.1276 10.0166 11.2462C10.2284 11.3339 10.4808 11.3131 10.6356 11.1485C10.832 10.9367 11.0745 10.5855 11.3214 10.2398C11.497 9.99182 11.7187 9.9611 11.9513 10.0489C12.1884 10.1312 13.4427 10.7512 13.7006 10.8796C13.9585 11.0091 14.1286 11.0706 14.1911 11.1792C14.2526 11.2879 14.2526 11.7981 14.0408 12.3973Z"/>
    </g>
    <defs>
        <clipPath id="clip0">
            <rect width="17.5584" height="17.5584" fill="white" transform="translate(0.151001)"/>
        </clipPath>
    </defs>
</svg>