<svg width="20" height="19" viewBox="0 0 20 19" fill="none" xmlns="http://www.w3.org/2000/svg">
<path d="M8.92081 0.546452L7.20543 0.0970551C6.46233 -0.100206 5.6713 0.00578212 5.00634 0.391707C4.34137 0.777632 3.85694 1.41189 3.65958 2.15496L3.22662 3.77992C4.64336 2.01594 6.68009 0.859377 8.92081 0.546452Z" fill="white"/>
<path d="M1.36881 10.7756L0.946817 12.365C0.749556 13.1081 0.855543 13.8991 1.24147 14.5641C1.62739 15.229 2.26165 15.7135 3.00473 15.9108L4.64886 16.3493C2.89388 14.9696 1.72282 12.9797 1.36881 10.7756Z" fill="white"/>
<path d="M17.4155 2.80715L15.5686 2.31665C16.5005 3.03346 17.2807 3.92821 17.864 4.94897C18.4473 5.96974 18.822 7.09618 18.9665 8.26294L19.4734 6.34478C19.6682 5.60282 19.561 4.81391 19.1753 4.15084C18.7896 3.48777 18.1568 3.0046 17.4155 2.80715Z" fill="white"/>
<path d="M11.4501 18.1554L13.2175 18.6322C13.9606 18.8294 14.7517 18.7234 15.4166 18.3375C16.0816 17.9516 16.566 17.3173 16.7634 16.5743L17.2621 14.7C15.856 16.5728 13.7671 17.8147 11.4501 18.1554Z" fill="white"/>
<path d="M10.2115 1.24268C8.6057 1.24268 7.03592 1.71886 5.70071 2.61102C4.3655 3.50318 3.32483 4.77124 2.7103 6.25485C2.09577 7.73845 1.93498 9.37097 2.24827 10.946C2.56155 12.5209 3.33484 13.9677 4.47034 15.1032C5.60584 16.2387 7.05256 17.012 8.62755 17.3252C10.2025 17.6385 11.8351 17.4777 13.3187 16.8632C14.8023 16.2487 16.0703 15.208 16.9625 13.8728C17.8546 12.5376 18.3308 10.9678 18.3308 9.36196C18.3308 7.20859 17.4754 5.14342 15.9527 3.62076C14.4301 2.0981 12.3649 1.24268 10.2115 1.24268ZM5.61344 5.29273C5.70026 4.84258 5.91859 4.42828 6.24084 4.10221C6.56309 3.77613 6.97478 3.55292 7.42387 3.4608C7.87296 3.36867 8.33928 3.41177 8.76388 3.58463C9.18848 3.7575 9.55229 4.05238 9.80933 4.43199C10.0664 4.8116 10.2051 5.25889 10.2079 5.71733C10.2108 6.17576 10.0776 6.62474 9.82534 7.00752C9.57304 7.39029 9.21292 7.68967 8.7905 7.86781C8.36809 8.04594 7.90234 8.09483 7.45214 8.00829C7.15306 7.9508 6.86823 7.83495 6.61395 7.66734C6.35966 7.49974 6.14089 7.28367 5.97013 7.03148C5.79938 6.7793 5.67999 6.49594 5.61879 6.1976C5.55759 5.89925 5.55577 5.59177 5.61344 5.29273ZM8.98666 12.3077C8.89935 12.7576 8.68064 13.1716 8.35817 13.4972C8.03569 13.8229 7.62393 14.0456 7.1749 14.1374C6.72587 14.2291 6.25973 14.1857 5.83536 14.0126C5.411 13.8395 5.04746 13.5445 4.79069 13.1649C4.53391 12.7853 4.39542 12.3381 4.3927 11.8798C4.38999 11.4215 4.52318 10.9727 4.77544 10.59C5.02771 10.2074 5.38772 9.90813 5.81 9.73003C6.23229 9.55193 6.69789 9.50299 7.14797 9.5894C7.44733 9.64687 7.73242 9.76282 7.98691 9.9306C8.2414 10.0984 8.46031 10.3147 8.63109 10.5672C8.80188 10.8197 8.9212 11.1034 8.98221 11.402C9.04322 11.7007 9.04474 12.0085 8.98666 12.3077ZM9.9704 10.4307C9.7706 10.392 9.58671 10.295 9.44194 10.152C9.29718 10.009 9.19801 9.82627 9.15695 9.62694C9.1159 9.42761 9.13479 9.22059 9.21125 9.03199C9.28771 8.84339 9.41831 8.68165 9.58657 8.56719C9.75484 8.45272 9.95324 8.39065 10.1567 8.3888C10.3602 8.38695 10.5597 8.44541 10.7301 8.5568C10.9004 8.6682 11.0339 8.82754 11.1138 9.01472C11.1936 9.2019 11.2163 9.40854 11.1788 9.60858C11.1539 9.7421 11.1027 9.86936 11.0284 9.98304C10.954 10.0967 10.8579 10.1946 10.7456 10.271C10.6333 10.3474 10.507 10.4008 10.374 10.4282C10.2409 10.4556 10.1038 10.4564 9.9704 10.4307ZM14.8069 13.4257C14.7201 13.8759 14.5018 14.2902 14.1795 14.6162C13.8573 14.9423 13.4456 15.1655 12.9965 15.2576C12.5474 15.3498 12.0811 15.3067 11.6565 15.1338C11.2319 14.9609 10.8681 14.6661 10.611 14.2865C10.354 13.9068 10.2153 13.4596 10.2124 13.0011C10.2096 12.5427 10.3427 12.0937 10.595 11.7109C10.8473 11.3282 11.2074 11.0288 11.6298 10.8506C12.0523 10.6725 12.518 10.6236 12.9682 10.7102C13.2673 10.7676 13.5521 10.8835 13.8064 11.0511C14.0607 11.2187 14.2795 11.4348 14.4502 11.687C14.621 11.9391 14.7404 12.2225 14.8016 12.5209C14.8628 12.8192 14.8646 13.1267 14.8069 13.4257ZM13.2724 9.12904C12.8222 9.04223 12.4079 8.82389 12.0819 8.50165C11.7558 8.1794 11.5326 7.76771 11.4404 7.31862C11.3483 6.86953 11.3914 6.40321 11.5643 5.97861C11.7371 5.55401 12.032 5.1902 12.4116 4.93316C12.7912 4.67613 13.2385 4.53742 13.697 4.53457C14.1554 4.53173 14.6044 4.66486 14.9872 4.91716C15.3699 5.16945 15.6693 5.52957 15.8474 5.95198C16.0256 6.3744 16.0745 6.84015 15.9879 7.29035C15.9308 7.58968 15.8151 7.8748 15.6477 8.12939C15.4802 8.38399 15.2642 8.60307 15.0119 8.7741C14.7597 8.94513 14.4763 9.06476 14.1778 9.12613C13.8793 9.18751 13.5716 9.18943 13.2724 9.13178V9.12904Z" fill="white"/>
</svg>
