<svg width="43" height="57" viewBox="0 0 43 57" fill="none" xmlns="http://www.w3.org/2000/svg">
<path d="M9.96206 29.9959C11.4367 29.8976 12.8458 30.3892 13.9272 31.3395L19.9897 36.6482C20.6778 37.2381 21.6937 37.2381 22.3491 36.5827L27.6251 31.5689C28.7065 30.5203 30.1484 29.9959 31.6558 30.0615C33.1632 30.127 34.5395 30.7824 35.5226 31.9294L42.5354 39.8925V22.295C42.5354 20.6893 41.6178 19.2474 40.1432 18.5592C39.6189 18.3298 39.029 18.0677 38.3736 17.8055C36.8334 11.612 31.8852 -2.77401 19.2687 0.470211C19.2687 0.470211 33.0321 0.0114332 34.9 17.8711C35.1622 20.6893 34.9655 22.7538 34.9655 22.7538L32.3112 22.1639C32.2784 20.2633 31.9179 17.4778 31.623 15.6755C26.3143 14.4302 19.4326 13.8076 11.6989 15.5116C15.0742 2.69857 23.1356 3.97659 23.1356 3.97659C11.0762 -1.5943 7.47155 22.0001 7.47155 22.0001H7.53709C7.50432 22.1639 7.50432 22.3278 7.47155 22.4916L4.78441 22.8521C4.78441 22.8521 4.71887 20.3616 5.50535 17.3467C4.48948 17.7072 3.47361 18.1332 2.42497 18.592C0.950327 19.2474 0 20.722 0 22.3278V38.9749L6.19352 31.8311C7.14385 30.7496 8.48742 30.0942 9.96206 29.9959Z" fill="url(#paint0_linear)"/>
<path d="M42.4699 48.8403L32.7372 37.7313C32.4095 37.3708 31.9835 37.1415 31.4919 37.1415C31.0004 37.1087 30.5416 37.3053 30.2139 37.633L24.9379 42.6468C22.8734 44.613 19.6947 44.6785 17.5647 42.8107L11.5022 37.5019C11.1418 37.207 10.683 37.0431 10.2242 37.0759C9.76544 37.1087 9.33944 37.3381 9.01174 37.6658L0 48.0538V48.742C0 53.297 3.703 57 8.25803 57H34.2446C38.7996 57 42.4698 53.3298 42.5026 48.8076L42.4699 48.8403Z" fill="#FA7670"/>
<defs>
<linearGradient id="paint0_linear" x1="21.2677" y1="0.652084" x2="21.2677" y2="38.0753" gradientUnits="userSpaceOnUse">
<stop offset="0.0376884" stop-color="#FA7670"/>
<stop offset="1" stop-color="#FF5A52"/>
</linearGradient>
</defs>
</svg>
